# xmcd
#
# Track frame offsets:
#	150
#	11260
#	27460
#	39610
#	51760
#	62110
#	74185
#	86332
#	97210
#	108682
#	119260
#	131485
#	144610
#	155260
#	168157
#	181057
#
# Disc length: 2579
#
# Revision: 1
# Processed by: cddbd v1.5.1PL2 Copyright (c) Steve Scherf et al.
# Submitted via: kTunes Lite (development) 1.0patch43.32
#
DISCID=de0a1110
DTITLE=Everly Brothers and Friends - Legends 077
DYEAR=2000
DGENRE=pop
TTITLE0=Everly Brothers - Bye bye love
TTITLE1=Everly Brothers - Let It be Me
TTITLE2=Everly Brothers - Walk right back
TTITLE3=Everly Brothers - Till I Kissed you
TTITLE4=Everly Brothers - Wake up little suzie
TTITLE5=Everly Brothers - All I Have to do is dream
TTITLE6=Everly Brothers - Cathy's clown
TTITLE7=Everly Brothers - When will I be loved
TTITLE8=Everly Brothers - Bird dog
TTITLE9=Everly Brothers - Crying in the rain
TTITLE10=Manfred Mann - Do Wah diddy
TTITLE11=Tommy Edwards - It's All In The game
TTITLE12=The Big Bopper - Chantilly Lace
TTITLE13=Bobby Day - Rockin' Robin
TTITLE14=Danny and The Juniors - At The Hop
TTITLE15=Gene Vincent - Be Bop A Lula
EXTD=
EXTT0=
EXTT1=
EXTT2=
EXTT3=
EXTT4=
EXTT5=
EXTT6=
EXTT7=
EXTT8=
EXTT9=
EXTT10=
EXTT11=
EXTT12=
EXTT13=
EXTT14=
EXTT15=
PLAYORDER=
